<svg width="50.00000000000001" height="50.00000000000001" xmlns="http://www.w3.org/2000/svg">

 <g>
  <title>background</title>
  <rect fill="none" id="canvas_background" height="402" width="582" y="-1" x="-1"/>
 </g>
 <g>
  <title>Layer 1</title>
  <rect id="svg_1" width="50" height="50" fill="none"/>
  <path id="svg_2" stroke-width="2" stroke-miterlimit="10" stroke-linejoin="round" stroke-linecap="round" stroke="#000000" fill="none" d="m32,35c0,0 8.312,0 9.098,0c4.365,0 7.902,-3.537 7.902,-7.901s-3.537,-7.902 -7.902,-7.902c-0.02,0 -0.038,0.003 -0.058,0.003c0.061,-0.494 0.103,-0.994 0.103,-1.504c0,-6.71 -5.439,-12.15 -12.15,-12.15c-5.229,0 -9.672,3.309 -11.386,7.941c-1.087,-1.089 -2.591,-1.764 -4.251,-1.764c-3.319,0 -6.009,2.69 -6.009,6.008c0,0.085 0.01,0.167 0.013,0.251c-3.665,1.013 -6.36,4.362 -6.36,8.349c0,4.788 3.881,8.669 8.67,8.669c0.827,0 8.33,0 8.33,0"/>
  <polyline id="svg_3" stroke-width="2" stroke-miterlimit="10" stroke-linecap="round" stroke="#000000" points="35.57902431488037,42.906755208969116 30.57902431488037,47.906755208969116 25.57902431488037,42.906755208969116 " fill="none"/>
  <line stroke="#000000" id="svg_4" y2="46.86855" y1="31.155301" x2="30.296542" x1="30.296542" stroke-width="2" stroke-miterlimit="10" stroke-linecap="round" fill="none"/>
  <text stroke="#000000" transform="matrix(0.6673862858404291,0,0,0.6673862858404291,2.989710626315176,11.9011009036053) " xml:space="preserve" text-anchor="start" font-family="'Courier New', Courier, monospace" font-size="24" id="svg_5" y="23.08086" x="19.251862" fill-opacity="null" stroke-opacity="null" stroke-width="0" fill="#000000">CV</text>
 </g>
</svg>